<svg height="512" viewBox="0 0 152 152" width="512" xmlns="http://www.w3.org/2000/svg"><g id="Layer_2" data-name="Layer 2"><g id="Black_And_White" data-name="Black And White"><g id="_05.5" data-name="05.5"><path d="m140 0h-128a12 12 0 0 0 -12 12v128a12 12 0 0 0 12 12h128a12 12 0 0 0 12-12v-128a12 12 0 0 0 -12-12zm-39.83 103.24a23.21 23.21 0 0 1 -9.51 9.45 30 30 0 0 1 -14.47 3.31 32.33 32.33 0 0 1 -13.93-3.06 25 25 0 0 1 -10.19-8.39 20.37 20.37 0 0 1 -3.63-12h18.32a10.39 10.39 0 0 0 2.76 6.87 8.81 8.81 0 0 0 6.56 2.54q9.21 0 9.22-13.63 0-12.6-11.28-12.61-6.39 0-9.54 4.12l-14.48-3.47 4.78-40.37h46.13v14.2h-31.28l-1.79 15.68a21.13 21.13 0 0 1 5.13-2 23.35 23.35 0 0 1 6.2-.87q11.76 0 18.08 7t6.31 19.54a28 28 0 0 1 -3.39 13.69z"/></g></g></g></svg>