<svg height="512" viewBox="0 0 152 152" width="512" xmlns="http://www.w3.org/2000/svg"><g id="Layer_2" data-name="Layer 2"><g id="Black_And_White" data-name="Black And White"><g id="_03.3" data-name="03.3"><path d="m140 0h-128a12 12 0 0 0 -12 12v128a12 12 0 0 0 12 12h128a12 12 0 0 0 12-12v-128a12 12 0 0 0 -12-12zm-43.75 109.75q-8 6.25-21 6.25a34.51 34.51 0 0 1 -14.25-2.91 22.2 22.2 0 0 1 -9.9-8.09 21 21 0 0 1 -3.37-11.73h18.12a8.13 8.13 0 0 0 2.88 6.2 10.24 10.24 0 0 0 7.11 2.62 10.7 10.7 0 0 0 7.59-2.65 8.83 8.83 0 0 0 2.83-6.76q0-5.88-2.94-8.34t-8.12-2.43h-8.77v-13.42h8.5q10.07 0 10.07-9.88a8.55 8.55 0 0 0 -2.4-6.28 9.15 9.15 0 0 0 -6.79-2.44 9.78 9.78 0 0 0 -6.2 2.11 6.37 6.37 0 0 0 -2.61 5.16h-18a18.42 18.42 0 0 1 3.42-10.95 22.54 22.54 0 0 1 9.49-7.51 32.37 32.37 0 0 1 13.29-2.7q13 0 20.41 5.93t7.39 16.3a16.44 16.44 0 0 1 -3 9.49 21.92 21.92 0 0 1 -9 7.28 20.9 20.9 0 0 1 9.72 6.81 18 18 0 0 1 3.53 11.3 20.08 20.08 0 0 1 -8 16.64z"/></g></g></g></svg>