<svg height="512" viewBox="0 0 152 152" width="512" xmlns="http://www.w3.org/2000/svg"><g id="Layer_2" data-name="Layer 2"><g id="Black_And_White" data-name="Black And White"><g id="_02.2" data-name="02.2"><path d="m140 0h-128a12 12 0 0 0 -12 12v128a12 12 0 0 0 12 12h128a12 12 0 0 0 12-12v-128a12 12 0 0 0 -12-12zm-35.67 116h-55v-11.92l25.32-26.64q9.35-10.68 9.35-16.96 0-5.08-2.22-7.74a7.93 7.93 0 0 0 -6.45-2.66 8 8 0 0 0 -6.77 3.55 14.62 14.62 0 0 0 -2.56 8.86h-18.33a25.91 25.91 0 0 1 3.63-13.41 25.42 25.42 0 0 1 10.08-9.61 29.91 29.91 0 0 1 14.4-3.47q12.8 0 19.69 5.9t6.91 17a24.53 24.53 0 0 1 -1.74 9.07 39.8 39.8 0 0 1 -5.38 9.26 135.45 135.45 0 0 1 -11.79 13l-10.18 11.69h31z"/></g></g></g></svg>