<svg id="Capa_1" enable-background="new 0 0 511.86 511.86" height="512" viewBox="0 0 511.86 511.86" width="512" xmlns="http://www.w3.org/2000/svg"><g><path d="m505.756 91.379c-9.275-18.409-29.529-28.603-52.864-26.586-.289.024-.578.058-.865.1l-88.085 12.779c-43.362 3.815-84.677 18.538-120.522 42.81l-129.82-28.71c-3.373-.746-6.902-.306-9.987 1.25l-50.01 25.189c-4.549 2.291-7.624 6.734-8.167 11.799-.542 5.064 1.522 10.059 5.483 13.261l81.434 65.854-52.624 42.545-62.464-9.54c-5.572-.847-11.147 1.492-14.438 6.064-3.292 4.573-3.743 10.605-1.169 15.617l51.38 100.029c2.657 5.173 7.907 8.149 13.354 8.149 2.265 0 4.563-.515 6.723-1.6l100.504-50.5 3.105 73.139c.216 5.089 3 9.72 7.393 12.299 2.339 1.373 4.964 2.064 7.594 2.064 2.309 0 4.622-.532 6.748-1.604l50.013-25.193c3.086-1.555 5.541-4.127 6.949-7.282l54.402-121.862 171.559-86.209c12.856-6.479 22.568-17.388 27.346-30.716 5.031-14.036 3.975-29.361-2.972-43.146zm-417.909 43.174 24.489-12.335 100.123 22.143-56.25 45.477zm142.356 221.653-24.492 12.338-4.375-103.049 89.485-45.077zm250.283-231.802c-2.14 5.969-6.735 11.09-12.592 14.041l-138.75 69.721 6.24-13.977c2.586-5.793 1.248-12.586-3.342-16.966s-11.439-5.398-17.104-2.545l-135.748 68.382c-5.266 2.652-8.488 8.143-8.238 14.033l1.271 29.924-99.293 49.893-31.174-60.69 39.989 6.107c4.175.639 8.416-.512 11.695-3.163l71.958-58.176c.015-.011.029-.024.044-.035l82.295-66.534c33.227-25.969 72.758-41.971 114.597-46.444-1.355 2.055-2.889 4.285-4.675 6.744-4.868 6.703-3.381 16.084 3.322 20.951 2.662 1.934 5.746 2.864 8.802 2.864 4.64 0 9.215-2.146 12.149-6.187 8.274-11.393 13.905-21.214 16.914-29.425l57.019-8.272c5.515-.408 17.902-.086 23.101 10.229 4.114 8.165 3.098 15.124 1.52 19.525z"/><path d="m408.715 354.191-213.353 107.472c-7.398 3.727-10.375 12.746-6.648 20.145 2.637 5.234 7.922 8.255 13.408 8.255 2.269 0 4.572-.517 6.736-1.606l213.353-107.473c7.398-3.727 10.375-12.746 6.648-20.145s-12.748-10.375-20.144-6.648z"/><path d="m108.949 404.64-61.587 31.023c-7.398 3.728-10.375 12.746-6.648 20.145 2.637 5.234 7.922 8.255 13.408 8.255 2.269 0 4.572-.517 6.736-1.606l61.587-31.023c7.398-3.728 10.375-12.746 6.648-20.145s-12.746-10.375-20.144-6.649z"/><path d="m255.936 71.032c3.536 0 7.088-1.243 9.942-3.773 17.444-15.46 47.909-15.478 48.426-15.461.055.001.107.001.162.001 8.193 0 14.889-6.589 14.995-14.806.107-8.283-6.521-15.086-14.805-15.193-1.728-.018-42.401-.277-68.675 23.006-6.2 5.495-6.772 14.976-1.278 21.175 2.965 3.344 7.089 5.051 11.233 5.051z"/></g></svg>