<svg height="426pt" viewBox="-10 0 426 426.66667" width="426pt" xmlns="http://www.w3.org/2000/svg"><path d="m53.667969 170.667969h149.332031c2.828125 0 5.542969-1.125 7.542969-3.125s3.125-4.714844 3.125-7.542969v-106.667969c0-2.828125-1.125-5.542969-3.125-7.542969s-4.714844-3.125-7.542969-3.121093h-149.332031c-2.832031-.003907-5.542969 1.121093-7.546875 3.121093-2 2-3.121094 4.714844-3.121094 7.542969v106.667969c0 2.828125 1.121094 5.542969 3.121094 7.542969 2.003906 2 4.714844 3.125 7.546875 3.125zm10.664062-106.667969h128v85.332031h-57.40625l13.613281-27.226562c2.636719-5.269531.5-11.679688-4.769531-14.3125-5.269531-2.636719-11.675781-.5-14.3125 4.769531l-18.386719 36.769531h-46.738281zm0 0"/><path d="m403.871094 111.417969c-1.566406-2.355469-4.007813-3.992188-6.78125-4.550781-2.773438-.554688-5.65625.019531-8.011719 1.59375l-64 42.664062c-2.964844 1.980469-4.746094 5.308594-4.746094 8.875v192c0 5.890625-4.773437 10.667969-10.664062 10.667969s-10.667969-4.777344-10.667969-10.667969v-85.332031c-.019531-17.667969-14.335938-31.984375-32-32h-10.667969v-224c.003907-2.832031-1.121093-5.542969-3.121093-7.546875-2-2-4.714844-3.121094-7.542969-3.121094h-234.667969c-2.828125 0-5.542969 1.121094-7.542969 3.121094-2 2.003906-3.125 4.714844-3.125 7.546875v405.332031c0 2.828125 1.125 5.542969 3.125 7.542969s4.714844 3.125 7.542969 3.125h234.667969c2.828125 0 5.542969-1.125 7.542969-3.125s3.125-4.714844 3.121093-7.542969v-160h10.667969c5.886719.007812 10.660156 4.777344 10.667969 10.667969v85.332031c0 17.671875 14.324219 32 32 32 17.671875 0 32-14.328125 32-32v-160h32c2.828125 0 5.542969-1.121094 7.542969-3.121094 2-2.003906 3.125-4.714844 3.121093-7.546875v-42.664062c-.054687-.417969-.140625-.832031-.246093-1.238281l16.832031-11.222657c2.351562-1.566406 3.988281-4.007812 4.542969-6.78125.554687-2.773437-.019532-5.65625-1.589844-8.007812zm-168.871094-90.085938v341.335938h-213.332031v-341.335938zm-213.332031 384v-21.332031h213.332031v21.332031zm341.328125-234.664062h-21.332032v-4.960938l21.332032-14.222656zm0 0"/><path d="m128.332031 213.332031c-20.351562 0-42.664062 44.917969-42.664062 64 0 23.566407 19.101562 42.667969 42.664062 42.667969 23.566407 0 42.667969-19.101562 42.667969-42.667969 0-19.082031-22.3125-64-42.667969-64zm0 85.335938c-11.777343-.011719-21.320312-9.558594-21.332031-21.335938 0-12.039062 14.019531-36.164062 21.332031-41.914062 7.3125 5.75 21.335938 29.875 21.335938 41.914062-.011719 11.777344-9.558594 21.324219-21.335938 21.335938zm0 0"/></svg>